# xmcd
# Copyright (C) 1995-1998 Ti Kan
#
# Track frame offsets:
#       150
#       24551
#       43377
#       66923
#       84315
#       115123
#       135481
#       141464
#       160246
#       185624
#       210221
#       236032
#       255754
#
# Disc length: 4035 seconds
#
# Revision: 1
# Processed by: cddbd v1.5PL3 Copyright (c) Steve Scherf et al.
# Submitted via: CD-Transfer v1.0
#
DISCID=b00fc10d
DTITLE=Detto Fatto Group - Domenico
DYEAR=04
DGENRE=
TTITLE0=Secondo Me
TTITLE1=Secondo Me (Short Edit)
TTITLE2=Ma Allora Chi?
TTITLE3=Per Non Perdere Il Vizio
TTITLE4=Oggi Non Va
TTITLE5=Che C'è
TTITLE6=Interoduzione Blues
TTITLE7=Blues Randagio
TTITLE8=Il Sole Va Giu
TTITLE9=Mister Be
TTITLE10=Il Sole Splende
TTITLE11=Conosco Un Tipo
TTITLE12=Pane E Vino
EXTD=
EXTT0=
EXTT1=
EXTT2=
EXTT3=
EXTT4=
EXTT5=
EXTT6=
EXTT7=
EXTT8=
EXTT9=
EXTT10=
EXTT11=
EXTT12=
PLAYORDER=
